<?xml version="1.0" encoding="utf-8"?>
<svg id="Layer_1" x="0px" y="0px" width="550px" height="400px" viewBox="0 0 257.49 356.62" xmlns="http://www.w3.org/2000/svg" xmlns:xlink="http://www.w3.org/1999/xlink">
  <symbol id="Scoring_Labels_x2F_Heinz_x2F_Symbol_71" viewBox="0 -143.406 264.9 143.406">
    <g id="Ebene_1_1_">
      <path fill-rule="evenodd" clip-rule="evenodd" fill="#B3B3B3" d="M243.05-22.05c3.467,2.367,6.6,4.867,9.4,7.5&#10;&#9;&#9;&#9;c2.8,2.633,5.233,5.133,7.3,7.5c2.1,2.333,3.817,4.233,5.15,5.7c-0.9-3.8-1.967-7.566-3.2-11.3c-1.9-5.633-3.95-11.434-6.15-17.4&#10;&#9;&#9;&#9;c-2.2-5.967-4.7-11.817-7.5-17.55c-2.8-5.733-6.05-11.033-9.75-15.9c-3.733-4.9-8.1-9.067-13.1-12.5&#10;&#9;&#9;&#9;c-5.267-3.633-10.233-7.8-14.9-12.5c-4.633-4.733-9.167-9.65-13.6-14.75c-4.434-5.1-8.917-10.05-13.45-14.85&#10;&#9;&#9;&#9;c-4.567-4.833-9.383-9.183-14.45-13.05c-5.066-3.833-10.566-6.867-16.5-9.1c-5.966-2.2-12.55-3.25-19.75-3.15&#10;&#9;&#9;&#9;c-7.233,0.2-13.816,1.483-19.75,3.85c-5.966,2.333-11.466,5.433-16.5,9.3c-5.066,3.833-9.867,8.117-14.4,12.85&#10;&#9;&#9;&#9;c-4.566,4.733-9.05,9.6-13.45,14.6c-4.4,5-8.934,9.8-13.6,14.4C50.217-83.767,45.267-79.633,40-76c-5,3.433-9.367,7.6-13.1,12.5&#10;&#9;&#9;&#9;c-3.733,4.867-7,10.167-9.8,15.9c-2.8,5.733-5.283,11.583-7.45,17.55c-2.2,5.966-4.25,11.767-6.15,17.4C2.1-8.483,0.933-4.267,0,0&#10;&#9;&#9;&#9;c1.133-1.067,2.7-2.767,4.7-5.1c2-2.3,4.417-4.867,7.25-7.7c2.833-2.833,6.066-5.567,9.7-8.2s7.667-4.8,12.1-6.5&#10;&#9;&#9;&#9;c4.4-1.7,9.183-2.583,14.35-2.65c5.8,0.033,10.883,0.3,15.25,0.8c4.4,0.533,8.45,1.217,12.15,2.05&#10;&#9;&#9;&#9;c3.667,0.833,7.333,1.716,11,2.65c3.633,0.933,7.6,1.816,11.9,2.65c4.3,0.833,9.25,1.517,14.85,2.05&#10;&#9;&#9;&#9;c5.633,0.534,12.25,0.8,19.85,0.8c7.633,0,14.25-0.267,19.85-0.8c5.6-0.533,10.55-1.216,14.85-2.05&#10;&#9;&#9;&#9;c4.3-0.833,8.284-1.717,11.95-2.65c3.633-0.934,7.3-1.817,11-2.65c3.667-0.833,7.7-1.517,12.1-2.05c4.4-0.5,9.483-0.767,15.25-0.8&#10;&#9;&#9;&#9;c4.833,0.066,9.316,0.833,13.45,2.3C235.717-26.35,239.55-24.417,243.05-22.05z"/>
    </g>
  </symbol>
  <symbol id="Scoring_Labels_x2F_Heinz_x2F_Symbol_72" viewBox="0 -6.5 6.5 6.5">
    <g id="Ebene_1_2_">
      <path fill-rule="evenodd" clip-rule="evenodd" fill="#FFFFFF" d="M3.25,0c0.933-0.033,1.7-0.35,2.3-0.95&#10;&#9;&#9;&#9;c0.6-0.6,0.917-1.367,0.95-2.3c-0.033-0.933-0.35-1.7-0.95-2.3c-0.6-0.6-1.367-0.917-2.3-0.95c-0.933,0.033-1.7,0.35-2.3,0.95&#10;&#9;&#9;&#9;C0.35-4.95,0.033-4.183,0-3.25c0.033,0.933,0.35,1.7,0.95,2.3C1.55-0.35,2.317-0.033,3.25,0z"/>
    </g>
  </symbol>
  <symbol id="Scoring_Labels_x2F_Heinz_x2F_Symbol_73" viewBox="0 -6.5 6.5 6.5">
    <g id="Ebene_1_3_">
      <path fill-rule="evenodd" clip-rule="evenodd" fill="#FFFFFF" d="M3.25,0c0.933-0.033,1.7-0.35,2.3-0.95&#10;&#9;&#9;&#9;c0.6-0.6,0.917-1.367,0.95-2.3c-0.033-0.933-0.35-1.7-0.95-2.3c-0.6-0.6-1.367-0.917-2.3-0.95c-0.933,0.033-1.7,0.35-2.3,0.95&#10;&#9;&#9;&#9;C0.35-4.95,0.033-4.183,0-3.25c0.033,0.933,0.35,1.7,0.95,2.3C1.55-0.35,2.317-0.033,3.25,0z"/>
    </g>
  </symbol>
  <g transform="matrix(1, 0, 0, 1, -146.251999, -16.005999)">
    <path fill-rule="evenodd" clip-rule="evenodd" fill="#E4BD95" d="M165.815,194.035L153.67,225.43&#10;&#9;&#9;c-0.863-3.22-1.715-6.137-2.555-8.75c-0.84-2.613-1.575-5.156-2.206-7.63c-0.63-2.45-1.085-5.063-1.365-7.84&#10;&#9;&#9;c-0.28-2.753-0.292-5.903-0.035-9.45c0.21-2.473,0.817-4.188,1.82-5.145c1.027-0.957,2.275-1.342,3.745-1.155&#10;&#9;&#9;c1.494,0.187,3.045,0.735,4.655,1.645c1.633,0.934,3.162,2.019,4.585,3.255C163.739,191.62,164.905,192.845,165.815,194.035z"/>
    <path fill-rule="evenodd" clip-rule="evenodd" fill="none" stroke="#000000" stroke-linecap="round" stroke-linejoin="round" stroke-miterlimit="3" d="&#10;&#9;&#9;M165.815,194.035c-0.91-1.19-2.077-2.415-3.5-3.675c-1.423-1.236-2.952-2.321-4.585-3.255c-1.61-0.91-3.162-1.458-4.655-1.645&#10;&#9;&#9;c-1.47-0.187-2.718,0.199-3.745,1.155c-1.003,0.957-1.61,2.671-1.82,5.145c-0.257,3.547-0.245,6.697,0.035,9.45&#10;&#9;&#9;c0.28,2.776,0.735,5.39,1.365,7.84c0.63,2.474,1.365,5.017,2.206,7.63c0.839,2.613,1.691,5.53,2.555,8.75"/>
  </g>
  <g transform="matrix(1, 0, 0, 1, -146.251999, -16.005999)">
    <path fill-rule="evenodd" clip-rule="evenodd" fill="#CBA887" d="M163.435,202.016l15.575,59.569&#10;&#9;&#9;c-3.874-0.047-7.187-0.91-9.94-2.59c-2.73-1.681-5.017-3.92-6.86-6.721c-1.843-2.8-3.348-5.902-4.515-9.31&#10;&#9;&#9;c-1.167-3.406-2.111-6.872-2.835-10.395c-0.7-3.523-1.307-6.86-1.82-10.011c-0.42-2.403-0.863-4.946-1.33-7.63&#10;&#9;&#9;c-0.49-2.706-0.875-5.32-1.155-7.84c-0.256-2.52-0.303-4.725-0.14-6.615c0.187-1.89,0.711-3.22,1.575-3.99&#10;&#9;&#9;c0.886-0.77,2.251-0.747,4.094,0.07C157.929,197.348,160.378,199.168,163.435,202.016z"/>
    <path fill-rule="evenodd" clip-rule="evenodd" fill="none" stroke="#000000" stroke-linecap="round" stroke-linejoin="round" stroke-miterlimit="3" d="&#10;&#9;&#9;M163.435,202.016c-3.057-2.847-5.506-4.667-7.35-5.46c-1.843-0.817-3.208-0.84-4.094-0.07c-0.864,0.77-1.389,2.1-1.575,3.99&#10;&#9;&#9;c-0.164,1.89-0.117,4.095,0.14,6.615c0.28,2.52,0.665,5.134,1.155,7.84c0.467,2.684,0.91,5.227,1.33,7.63&#10;&#9;&#9;c0.513,3.15,1.12,6.487,1.82,10.011c0.724,3.522,1.668,6.988,2.835,10.395c1.167,3.407,2.671,6.51,4.515,9.31&#10;&#9;&#9;c1.844,2.801,4.13,5.04,6.86,6.721c2.753,1.68,6.066,2.543,9.94,2.59"/>
  </g>
  <g transform="matrix(1, 0, 0, 1, -146.251999, -16.005999)">
    <path fill-rule="evenodd" clip-rule="evenodd" fill="#E4BD95" d="M393.874,226.97l-14.245-28.945&#10;&#9;&#9;c0.724-0.256,1.575-0.84,2.556-1.75c1.003-0.933,2.088-2.018,3.255-3.255c1.167-1.26,2.38-2.508,3.64-3.745&#10;&#9;&#9;c1.261-1.236,2.509-2.287,3.745-3.15s2.415-1.388,3.535-1.575c1.12-0.164,2.146,0.187,3.08,1.05&#10;&#9;&#9;c0.91,0.863,1.668,2.415,2.275,4.655c0.746,2.847,1.026,5.554,0.84,8.12c-0.188,2.566-0.653,5.04-1.4,7.42&#10;&#9;&#9;c-0.746,2.356-1.61,4.689-2.59,7c-0.98,2.287-1.901,4.597-2.766,6.93C394.913,222.059,394.271,224.474,393.874,226.97z"/>
    <path fill-rule="evenodd" clip-rule="evenodd" fill="none" stroke="#000000" stroke-linecap="round" stroke-linejoin="round" stroke-miterlimit="3" d="&#10;&#9;&#9;M379.629,198.025c0.724-0.256,1.575-0.84,2.556-1.75c1.003-0.933,2.088-2.018,3.255-3.255c1.167-1.26,2.38-2.508,3.64-3.745&#10;&#9;&#9;c1.261-1.236,2.509-2.287,3.745-3.15s2.415-1.388,3.535-1.575c1.12-0.164,2.146,0.187,3.08,1.05&#10;&#9;&#9;c0.91,0.863,1.668,2.415,2.275,4.655c0.746,2.847,1.026,5.554,0.84,8.12c-0.188,2.566-0.653,5.04-1.4,7.42&#10;&#9;&#9;c-0.746,2.356-1.61,4.689-2.59,7c-0.98,2.287-1.901,4.597-2.766,6.93c-0.886,2.334-1.527,4.749-1.925,7.245"/>
  </g>
  <g transform="matrix(1, 0, 0, 1, -146.251999, -16.005999)">
    <path fill-rule="evenodd" clip-rule="evenodd" fill="#CBA985" d="M368.465,261.27l13.965-57.854c0.513-0.42,1.166-1.062,1.96-1.925&#10;&#9;&#9;c0.793-0.887,1.656-1.832,2.59-2.835c0.956-0.98,1.937-1.866,2.939-2.66c1.004-0.793,1.995-1.318,2.976-1.575&#10;&#9;&#9;c0.957-0.256,1.854-0.07,2.695,0.56c0.63,0.537,1.096,1.528,1.399,2.975c0.28,1.447,0.455,3.127,0.525,5.04&#10;&#9;&#9;c0.046,1.937,0.012,3.885-0.105,5.845c-0.116,1.96-0.28,3.733-0.49,5.32c-0.21,1.563-0.432,2.718-0.665,3.465&#10;&#9;&#9;c-0.232,0.84-0.606,2.264-1.12,4.27c-0.513,2.007-1.143,4.375-1.89,7.105c-0.77,2.753-1.645,5.658-2.625,8.715&#10;&#9;&#9;c-0.979,3.057-2.076,6.066-3.29,9.03c-1.213,2.963-2.52,5.67-3.92,8.12c-1.4,2.449-2.894,4.444-4.479,5.984&#10;&#9;&#9;c-1.587,1.517-3.255,2.368-5.005,2.555C372.175,263.568,370.354,262.856,368.465,261.27z"/>
    <path fill-rule="evenodd" clip-rule="evenodd" fill="none" stroke="#000000" stroke-linecap="round" stroke-linejoin="round" stroke-miterlimit="3" d="&#10;&#9;&#9;M382.43,203.415c0.513-0.42,1.166-1.062,1.96-1.925c0.793-0.887,1.656-1.832,2.59-2.835c0.956-0.98,1.937-1.866,2.939-2.66&#10;&#9;&#9;c1.004-0.793,1.995-1.318,2.976-1.575c0.957-0.256,1.854-0.07,2.695,0.56c0.63,0.537,1.096,1.528,1.399,2.975&#10;&#9;&#9;c0.28,1.447,0.455,3.127,0.525,5.04c0.046,1.937,0.012,3.885-0.105,5.845c-0.116,1.96-0.28,3.733-0.49,5.32&#10;&#9;&#9;c-0.21,1.563-0.432,2.718-0.665,3.465c-0.232,0.84-0.606,2.264-1.12,4.27c-0.513,2.007-1.143,4.375-1.89,7.105&#10;&#9;&#9;c-0.77,2.753-1.645,5.658-2.625,8.715c-0.979,3.057-2.076,6.066-3.29,9.03c-1.213,2.963-2.52,5.67-3.92,8.12&#10;&#9;&#9;c-1.4,2.449-2.894,4.444-4.479,5.984c-1.587,1.517-3.255,2.368-5.005,2.555c-1.75,0.164-3.57-0.548-5.46-2.135"/>
  </g>
  <g transform="matrix(1, 0, 0, 1, -146.251999, -16.005999)">
    <path fill-rule="evenodd" clip-rule="evenodd" fill="#3F3F3F" d="M377.529,233.024H169.7c-0.77-4.433-1.75-9.578-2.94-15.435&#10;&#9;&#9;c-1.19-5.833-2.426-12.203-3.71-19.11c-1.307-6.907-2.508-14.164-3.605-21.77s-1.937-15.376-2.52-23.31&#10;&#9;&#9;c-0.583-7.934-0.735-15.855-0.455-23.765c0.257-7.91,1.097-15.622,2.52-23.135c1.447-7.513,3.617-14.653,6.51-21.42&#10;&#9;&#9;c3.453-7.84,7.653-14.77,12.6-20.79s10.43-11.235,16.45-15.645c6.02-4.411,12.366-8.109,19.04-11.095&#10;&#9;&#9;c6.65-2.987,13.428-5.378,20.334-7.175c6.884-1.797,13.685-3.08,20.405-3.85c6.697-0.793,13.102-1.178,19.215-1.155v0.035&#10;&#9;&#9;c6.09-0.023,12.495,0.362,19.215,1.155c6.72,0.77,13.533,2.054,20.439,3.85c6.907,1.773,13.697,4.165,20.37,7.175&#10;&#9;&#9;c6.696,2.987,13.056,6.686,19.075,11.095c6.021,4.387,11.515,9.59,16.484,15.61c4.947,6.02,9.147,12.95,12.601,20.79&#10;&#9;&#9;c2.917,6.767,5.086,13.907,6.51,21.42s2.264,15.225,2.52,23.135c0.28,7.91,0.129,15.832-0.454,23.765&#10;&#9;&#9;c-0.561,7.933-1.389,15.703-2.485,23.31c-1.12,7.606-2.321,14.863-3.604,21.77c-1.307,6.907-2.556,13.277-3.745,19.11&#10;&#9;&#9;C379.279,223.446,378.3,228.592,377.529,233.024z"/>
    <path fill-rule="evenodd" clip-rule="evenodd" fill="none" stroke="#000000" stroke-linecap="round" stroke-linejoin="round" stroke-miterlimit="3" d="&#10;&#9;&#9;M169.7,233.024c-0.77-4.433-1.75-9.578-2.94-15.435c-1.19-5.833-2.426-12.203-3.71-19.11c-1.307-6.907-2.508-14.164-3.605-21.77&#10;&#9;&#9;s-1.937-15.376-2.52-23.31c-0.583-7.934-0.735-15.855-0.455-23.765c0.257-7.91,1.097-15.622,2.52-23.135&#10;&#9;&#9;c1.447-7.513,3.617-14.653,6.51-21.42c3.453-7.84,7.653-14.77,12.6-20.79s10.43-11.235,16.45-15.645&#10;&#9;&#9;c6.02-4.411,12.366-8.109,19.04-11.095c6.65-2.987,13.428-5.378,20.334-7.175c6.884-1.797,13.685-3.08,20.405-3.85&#10;&#9;&#9;c6.697-0.793,13.102-1.178,19.215-1.155v0.035c6.09-0.023,12.495,0.362,19.215,1.155c6.72,0.77,13.533,2.054,20.439,3.85&#10;&#9;&#9;c6.907,1.773,13.697,4.165,20.37,7.175c6.696,2.987,13.056,6.686,19.075,11.095c6.021,4.387,11.515,9.59,16.484,15.61&#10;&#9;&#9;c4.947,6.02,9.147,12.95,12.601,20.79c2.917,6.767,5.086,13.907,6.51,21.42s2.264,15.225,2.52,23.135&#10;&#9;&#9;c0.28,7.91,0.129,15.832-0.454,23.765c-0.561,7.933-1.389,15.703-2.485,23.31c-1.12,7.606-2.321,14.863-3.604,21.77&#10;&#9;&#9;c-1.307,6.907-2.556,13.277-3.745,19.11c-1.19,5.856-2.17,11.002-2.94,15.435"/>
  </g>
  <g transform="matrix(1, 0, 0, 1, -146.251999, -16.005999)">
    <path fill-rule="evenodd" clip-rule="evenodd" fill="none" stroke="#000000" stroke-linecap="round" stroke-linejoin="round" stroke-miterlimit="3" d="&#10;&#9;&#9;M165.5,85.116c-2.917,6.767-5.087,13.907-6.51,21.419c-1.423,7.514-2.263,15.225-2.52,23.135c-0.28,7.91-0.128,15.832,0.455,23.765&#10;&#9;&#9;c0.583,7.934,1.423,15.704,2.52,23.31c1.097,7.583,2.298,14.828,3.605,21.735s2.555,13.289,3.745,19.145s2.158,11.002,2.905,15.435&#10;&#9;&#9;"/>
  </g>
  <g transform="matrix(1, 0, 0, 1, -146.251999, -16.005999)">
    <path fill-rule="evenodd" clip-rule="evenodd" fill="#E4BD95" d="M319.729,80.734c2.847-0.187,5.669,0.082,8.47,0.806&#10;&#9;&#9;c2.8,0.746,5.681,1.843,8.645,3.29c4.271,2.077,7.863,4.667,10.78,7.77c2.917,3.127,5.331,6.603,7.244,10.43&#10;&#9;&#9;c1.891,3.85,3.466,7.898,4.726,12.145c1.236,4.247,2.322,8.528,3.255,12.845c0.934,4.316,1.891,8.505,2.87,12.565&#10;&#9;&#9;c1.026,4.27,2.182,8.47,3.465,12.6c1.284,4.107,2.894,8.109,4.83,12.005c1.33,2.683,2.229,5.378,2.695,8.085&#10;&#9;&#9;c0.467,2.683,0.734,5.413,0.805,8.19s0.163,5.658,0.279,8.645c0.28,5.11,0.561,10.173,0.841,15.19&#10;&#9;&#9;c0.257,4.994,0.304,10.01,0.14,15.051c-0.163,5.017-0.723,10.114-1.68,15.294c-0.537,2.567-1.237,5.052-2.101,7.455&#10;&#9;&#9;c-0.863,2.404-1.762,4.807-2.694,7.21c-0.934,2.381-1.75,4.819-2.45,7.315c-0.677,2.496-1.283,5.005-1.819,7.524&#10;&#9;&#9;c-0.537,2.497-1.109,4.994-1.716,7.49c-0.583,2.497-1.283,4.958-2.1,7.385c-1.33,3.944-2.765,8.004-4.306,12.181&#10;&#9;&#9;c-1.516,4.2-3.254,8.295-5.215,12.285c-1.96,4.013-4.246,7.723-6.859,11.129c-2.613,3.431-5.67,6.348-9.17,8.75&#10;&#9;&#9;c-3.687,2.544-7.151,5.473-10.396,8.786c-3.266,3.289-6.451,6.72-9.555,10.289c-3.08,3.57-6.219,7.047-9.415,10.43&#10;&#9;&#9;c-3.173,3.36-6.533,6.395-10.08,9.101c-3.547,2.683-7.408,4.807-11.585,6.369c-4.177,1.541-8.784,2.275-13.825,2.206&#10;&#9;&#9;c-5.04-0.141-9.648-1.039-13.825-2.695c-4.153-1.634-8.003-3.792-11.55-6.475c-3.546-2.707-6.907-5.717-10.08-9.03&#10;&#9;&#9;c-3.173-3.313-6.312-6.72-9.415-10.22c-3.08-3.477-6.242-6.837-9.485-10.08c-3.266-3.244-6.743-6.137-10.43-8.681&#10;&#9;&#9;c-3.477-2.402-6.522-5.319-9.135-8.75c-2.613-3.406-4.9-7.116-6.86-11.129c-1.959-3.99-3.709-8.085-5.25-12.285&#10;&#9;&#9;c-1.517-4.177-2.939-8.236-4.27-12.181c-0.84-2.449-1.551-4.911-2.135-7.385c-0.583-2.496-1.143-4.993-1.68-7.49&#10;&#9;&#9;c-0.537-2.52-1.144-5.028-1.82-7.524c-0.723-2.496-1.552-4.935-2.485-7.315c-0.934-2.403-1.832-4.806-2.695-7.21&#10;&#9;&#9;c-0.864-2.427-1.552-4.911-2.065-7.455c-0.957-5.18-1.517-10.277-1.68-15.294c-0.164-5.041-0.117-10.057,0.14-15.051&#10;&#9;&#9;c0.257-4.993,0.537-10.056,0.84-15.19c0.117-2.986,0.21-5.868,0.28-8.645c0.047-2.777,0.315-5.507,0.805-8.19&#10;&#9;&#9;c0.467-2.683,1.365-5.378,2.695-8.085c1.937-3.896,3.535-7.91,4.795-12.04c1.284-4.106,2.438-8.295,3.465-12.565&#10;&#9;&#9;c0.98-4.06,1.937-8.249,2.87-12.565c0.957-4.317,2.053-8.598,3.29-12.845c1.237-4.247,2.812-8.284,4.725-12.11&#10;&#9;&#9;c1.913-3.85,4.329-7.338,7.245-10.465c2.917-3.103,6.51-5.693,10.78-7.77c2.963-1.446,5.845-2.543,8.645-3.29&#10;&#9;&#9;c2.777-0.724,5.6-0.992,8.47-0.806c2.846,0.187,5.845,0.957,8.995,2.311c2.823,1.213,5.612,2.496,8.365,3.85&#10;&#9;&#9;c2.754,1.33,5.542,2.625,8.365,3.885c1.05,0.467,2.17,1.003,3.36,1.61c1.213,0.607,2.427,1.19,3.64,1.75&#10;&#9;&#9;c1.213,0.537,2.368,0.968,3.465,1.295c0.887,0.257,1.902,0.513,3.045,0.77c1.144,0.233,2.275,0.432,3.395,0.595&#10;&#9;&#9;c1.144,0.163,2.17,0.256,3.08,0.28c0.91,0,1.96-0.093,3.15-0.28c1.166-0.164,2.345-0.362,3.535-0.595&#10;&#9;&#9;c1.189-0.257,2.239-0.513,3.149-0.77c1.097-0.303,2.252-0.735,3.465-1.295c1.214-0.56,2.415-1.143,3.605-1.75&#10;&#9;&#9;c1.213-0.606,2.345-1.143,3.395-1.61c2.801-1.26,5.589-2.555,8.365-3.885c2.753-1.354,5.53-2.636,8.33-3.85&#10;&#9;&#9;C313.872,81.691,316.882,80.921,319.729,80.734z"/>
  </g>
  <use width="264.9" height="143.406" y="-143.406" transform="matrix(0.699999988079071, 0, 0, -0.699999988079071, 34.74800109863281, 255.1941986083985)" overflow="visible" opacity="0.6094" xlink:href="#Scoring_Labels_x2F_Heinz_x2F_Symbol_71"/>
  <g transform="matrix(1, 0, 0, 1, -146.251999, -16.005999)">
    <path fill-rule="evenodd" clip-rule="evenodd" fill="none" stroke="#000000" stroke-linecap="round" stroke-linejoin="round" stroke-miterlimit="3" d="&#10;&#9;&#9;M304.064,256.825c0.304,0.513,0.642,1.236,1.016,2.17c0.396,0.909,0.77,1.89,1.119,2.939c0.374,1.073,0.666,2.065,0.875,2.975&#10;&#9;&#9;c0.21,0.934,0.292,1.657,0.245,2.171c-0.21,1.563-0.805,2.788-1.785,3.675c-1.003,0.887-2.182,1.598-3.534,2.135&#10;&#9;&#9;c-1.354,0.56-2.695,1.085-4.025,1.575c-2.753,1.167-5.507,2.356-8.26,3.569c-2.754,1.214-5.554,2.275-8.4,3.186&#10;&#9;&#9;c-2.869,0.91-5.833,1.493-8.89,1.75c-1.983,0.116-4.013-0.059-6.09-0.525c-2.053-0.489-4.119-1.131-6.195-1.925&#10;&#9;&#9;c-2.077-0.793-4.13-1.61-6.16-2.45c-2.03-0.84-4.014-1.552-5.95-2.135c-1.47-0.396-2.8-0.84-3.99-1.33&#10;&#9;&#9;c-1.19-0.467-2.17-1.155-2.94-2.064c-0.747-0.91-1.225-2.229-1.435-3.955c-0.14-1.47,0.035-2.835,0.525-4.095&#10;&#9;&#9;c0.467-1.237,0.992-2.462,1.575-3.676c0.583-1.213,0.968-2.543,1.155-3.989"/>
  </g>
  <g transform="matrix(1, 0, 0, 1, -146.251999, -16.005999)">
    <path fill-rule="evenodd" clip-rule="evenodd" fill="#CBA985" d="M287.649,209.12c0.7-0.257,1.226-0.117,1.575,0.42&#10;&#9;&#9;c0.373,0.56,0.63,1.342,0.771,2.345c0.163,1.004,0.268,2.065,0.314,3.186c0.07,1.12,0.141,2.123,0.21,3.01&#10;&#9;&#9;c0.351,3.22,1.015,6.429,1.995,9.625c0.98,3.173,2.123,6.312,3.43,9.415c1.33,3.08,2.672,6.078,4.025,8.995&#10;&#9;&#9;c0.514,1.05,1.073,2.029,1.68,2.939c0.584,0.91,1.073,1.867,1.471,2.87c0.396,1.003,0.548,2.17,0.454,3.5v0.91&#10;&#9;&#9;c-0.723-1.657-1.691-2.812-2.904-3.465c-1.19-0.677-2.474-0.945-3.851-0.806c-1.354,0.141-2.66,0.584-3.92,1.33&#10;&#9;&#9;c-1.236,0.747-2.263,1.691-3.079,2.835c-0.49,0.771-0.934,1.575-1.33,2.415c-0.374,0.84-0.853,1.54-1.436,2.101&#10;&#9;&#9;c-0.606,0.583-1.446,0.852-2.521,0.805c-0.839-0.094-1.621-0.502-2.345-1.225c-0.723-0.724-1.342-1.552-1.854-2.485&#10;&#9;&#9;c-0.514-0.91-0.852-1.715-1.015-2.415c-0.747-3.08-1.144-6.358-1.19-9.835c-0.07-3.477,0.07-6.965,0.42-10.465&#10;&#9;&#9;c0.327-3.477,0.735-6.79,1.225-9.94c0.187-1.399,0.514-2.939,0.98-4.619c0.467-1.681,1.038-3.313,1.715-4.9&#10;&#9;&#9;c0.7-1.587,1.505-2.952,2.415-4.095C286.028,210.17,286.95,209.354,287.649,209.12z"/>
  </g>
  <g transform="matrix(1, 0, 0, 1, -146.251999, -16.005999)">
    <path fill-rule="evenodd" clip-rule="evenodd" fill="none" stroke="#000000" stroke-width="2" stroke-linecap="round" stroke-linejoin="round" stroke-miterlimit="3" d="&#10;&#9;&#9;M314.284,304.005c-0.022,0.022-0.396,0.233-1.119,0.63c-0.724,0.396-1.657,0.84-2.8,1.33c-1.167,0.513-2.404,0.944-3.711,1.295&#10;&#9;&#9;c-1.307,0.373-2.566,0.537-3.779,0.49c-2.823-0.164-5.775-0.386-8.855-0.666c-3.08-0.279-6.218-0.536-9.415-0.77&#10;&#9;&#9;c-3.196-0.233-6.37-0.361-9.52-0.385c-2.474,0-5.227,0.059-8.26,0.175c-3.01,0.094-6.102,0.222-9.275,0.385&#10;&#9;&#9;c-3.173,0.141-6.23,0.304-9.17,0.49s-5.588,0.361-7.945,0.525c-2.357,0.14-4.224,0.268-5.6,0.385c-1.376,0.094-2.077,0.14-2.1,0.14&#10;&#9;&#9;"/>
  </g>
  <g transform="matrix(1, 0, 0, 1, -146.251999, -16.005999)">
    <path fill-rule="evenodd" clip-rule="evenodd" fill="#FFFFFF" d="M227.73,203.31c1.4-0.257,2.823-0.361,4.27-0.314&#10;&#9;&#9;c1.47,0.07,2.894,0.245,4.27,0.525c1.563,0.279,3.033,0.642,4.41,1.084c1.377,0.443,2.672,1.214,3.885,2.311&#10;&#9;&#9;c1.19,1.073,2.298,2.182,3.325,3.325c1.026,1.166,1.901,2.427,2.625,3.78l-0.35-0.351c-0.49,0.21-0.957,0.408-1.4,0.595&#10;&#9;&#9;c-0.443,0.188-0.934,0.339-1.47,0.455c-1.75,0.396-3.523,0.677-5.32,0.84c-1.797,0.188-3.593,0.386-5.39,0.596&#10;&#9;&#9;c-1.61,0.187-3.243,0.326-4.9,0.42c-1.657,0.093-3.302,0.257-4.935,0.49c-1.633,0.279-3.29,0.303-4.97,0.069&#10;&#9;&#9;c-1.656-0.233-3.126-0.887-4.41-1.96c-0.606-0.536-1.213-1.085-1.82-1.645c-0.583-0.583-1.213-1.144-1.89-1.681&#10;&#9;&#9;c-0.653-0.49-1.342-0.968-2.065-1.435s-1.342-1.015-1.855-1.645c0.653-0.607,1.446-1.098,2.38-1.471&#10;&#9;&#9;c0.933-0.373,1.82-0.723,2.66-1.05c0.723-0.303,1.481-0.56,2.275-0.771c0.793-0.209,1.563-0.432,2.31-0.664&#10;&#9;&#9;c1.33-0.397,2.707-0.677,4.13-0.841C224.941,203.788,226.353,203.566,227.73,203.31z"/>
  </g>
  <g transform="matrix(1, 0, 0, 1, -146.251999, -16.005999)">
    <path fill-rule="evenodd" clip-rule="evenodd" fill="#FFFFFF" d="M315.159,203.8c1.61-0.163,3.186-0.14,4.726,0.07&#10;&#9;&#9;c1.377,0.21,2.765,0.502,4.165,0.875c1.399,0.373,2.753,0.724,4.06,1.05c0.443,0.094,1.026,0.21,1.75,0.351&#10;&#9;&#9;c0.747,0.14,1.517,0.314,2.311,0.524c0.816,0.21,1.539,0.467,2.17,0.771c0.653,0.303,1.097,0.688,1.33,1.154&#10;&#9;&#9;c0.536,1.214,0.513,2.252-0.07,3.115c-0.584,0.863-1.517,1.599-2.8,2.205c-1.26,0.583-2.637,1.05-4.13,1.4&#10;&#9;&#9;c-1.493,0.326-2.882,0.571-4.165,0.734c-1.26,0.141-2.193,0.21-2.801,0.21c-3.22-0.047-6.3-0.443-9.239-1.189&#10;&#9;&#9;c-0.91-0.211-1.948-0.467-3.115-0.771c-1.166-0.303-2.286-0.677-3.359-1.12c-1.098-0.443-1.983-0.979-2.66-1.609l-0.455-0.91&#10;&#9;&#9;c0.257-0.934,0.723-1.691,1.399-2.275c0.7-0.56,1.4-1.062,2.101-1.505c1.236-0.863,2.613-1.552,4.13-2.064&#10;&#9;&#9;C311.998,204.302,313.55,203.964,315.159,203.8z"/>
  </g>
  <g transform="matrix(1, 0, 0, 1, -146.251999, -16.005999)">
    <path fill-rule="evenodd" clip-rule="evenodd" fill="none" stroke="#000000" stroke-width="2" stroke-linecap="round" stroke-linejoin="round" stroke-miterlimit="3" d="&#10;&#9;&#9;M200.43,214.16c0-0.023,0.443-0.42,1.33-1.19c0.911-0.746,2.275-1.68,4.095-2.8c1.843-1.097,4.177-2.17,7-3.22&#10;&#9;&#9;c2.8-1.073,6.125-1.925,9.975-2.555c3.827-0.654,8.19-0.898,13.09-0.735c1.867,0.163,3.558,0.606,5.075,1.33&#10;&#9;&#9;c1.54,0.724,2.893,1.587,4.06,2.59c1.144,0.979,2.112,1.948,2.905,2.904c0.793,0.98,1.4,1.786,1.82,2.416&#10;&#9;&#9;c0.397,0.652,0.595,0.991,0.595,1.015"/>
  </g>
  <g transform="matrix(1, 0, 0, 1, -146.251999, -16.005999)">
    <path fill-rule="evenodd" clip-rule="evenodd" fill="#5A3D1B" d="M237.145,210.275c0,1.143-0.28,2.17-0.84,3.079&#10;&#9;&#9;c-0.536,0.91-1.26,1.646-2.17,2.205c-0.91,0.537-1.937,0.806-3.08,0.806c-1.144,0-2.17-0.28-3.08-0.84&#10;&#9;&#9;c-0.91-0.537-1.633-1.261-2.17-2.171c-0.537-0.909-0.817-1.937-0.84-3.079c0.023-1.144,0.303-2.171,0.84-3.08&#10;&#9;&#9;c0.537-0.91,1.26-1.634,2.17-2.17c0.934-0.537,1.96-0.817,3.08-0.841c1.143,0.023,2.17,0.304,3.08,0.841&#10;&#9;&#9;c0.91,0.536,1.645,1.26,2.206,2.17C236.877,208.128,237.145,209.155,237.145,210.275z"/>
  </g>
  <g transform="matrix(1, 0, 0, 1, -146.251999, -16.005999)">
    <path fill-rule="evenodd" clip-rule="evenodd" d="M233.295,212.515c-0.606,0.584-1.354,0.887-2.24,0.91&#10;&#9;&#9;c-0.887-0.023-1.633-0.326-2.24-0.91c-0.583-0.606-0.887-1.354-0.91-2.239c0.023-0.887,0.327-1.634,0.91-2.24&#10;&#9;&#9;c0.607-0.583,1.354-0.887,2.24-0.91c0.886,0.023,1.633,0.327,2.24,0.91c0.583,0.606,0.887,1.354,0.91,2.24&#10;&#9;&#9;C234.182,211.161,233.878,211.908,233.295,212.515z"/>
  </g>
  <use width="6.5" height="6.5" y="-6.5" transform="matrix(0.699999988079071, 0, 0, -0.699999988079071, 80.84809875488281, 188.94419860839844)" overflow="visible" opacity="0.6992" xlink:href="#Scoring_Labels_x2F_Heinz_x2F_Symbol_72"/>
  <g transform="matrix(1, 0, 0, 1, -146.251999, -16.005999)">
    <path fill-rule="evenodd" clip-rule="evenodd" fill="#5A3D1B" d="M319.954,204.185c1.144,0.023,2.171,0.304,3.08,0.841&#10;&#9;&#9;c0.91,0.536,1.646,1.26,2.206,2.17c0.536,0.933,0.805,1.96,0.805,3.08c0,1.143-0.28,2.17-0.841,3.079&#10;&#9;&#9;c-0.536,0.91-1.26,1.646-2.17,2.205c-0.909,0.537-1.937,0.806-3.08,0.806c-1.143,0-2.17-0.28-3.079-0.84&#10;&#9;&#9;c-0.91-0.537-1.634-1.261-2.17-2.171c-0.537-0.909-0.817-1.937-0.84-3.079c0.022-1.144,0.303-2.171,0.84-3.08&#10;&#9;&#9;c0.536-0.91,1.26-1.634,2.17-2.17C317.808,204.488,318.835,204.208,319.954,204.185z"/>
  </g>
  <g transform="matrix(1, 0, 0, 1, -146.251999, -16.005999)">
    <path fill-rule="evenodd" clip-rule="evenodd" d="M322.194,212.515c-0.606,0.584-1.354,0.887-2.24,0.91&#10;&#9;&#9;c-0.886-0.023-1.633-0.326-2.239-0.91c-0.584-0.606-0.887-1.354-0.91-2.239c0.023-0.887,0.326-1.634,0.91-2.24&#10;&#9;&#9;c0.606-0.583,1.354-0.887,2.239-0.91c0.887,0.023,1.634,0.327,2.24,0.91c0.583,0.606,0.887,1.354,0.91,2.24&#10;&#9;&#9;C323.081,211.161,322.777,211.908,322.194,212.515z"/>
  </g>
  <use width="6.5" height="6.5" y="-6.5" transform="matrix(0.699999988079071, 0, 0, -0.699999988079071, 169.74801635742188, 188.94419860839844)" overflow="visible" opacity="0.6992" xlink:href="#Scoring_Labels_x2F_Heinz_x2F_Symbol_73"/>
  <g transform="matrix(1, 0, 0, 1, -146.251999, -16.005999)">
    <path fill-rule="evenodd" clip-rule="evenodd" fill="none" stroke="#000000" stroke-width="2" stroke-linecap="round" stroke-linejoin="round" stroke-miterlimit="3" d="&#10;&#9;&#9;M347.22,214.615c-0.023-0.047-0.618-0.467-1.785-1.261c-1.167-0.793-2.776-1.772-4.83-2.939c-2.053-1.167-4.422-2.311-7.104-3.431&#10;&#9;&#9;c-2.684-1.119-5.554-2.006-8.61-2.659c-3.08-0.653-6.218-0.887-9.415-0.7c-2.729,0.373-4.947,0.957-6.65,1.75&#10;&#9;&#9;c-1.727,0.793-3.057,1.634-3.989,2.521c-0.934,0.863-1.575,1.609-1.926,2.239c-0.35,0.606-0.513,0.934-0.489,0.98"/>
  </g>
  <g transform="matrix(1, 0, 0, 1, -146.251999, -16.005999)">
    <path fill-rule="evenodd" clip-rule="evenodd" fill="#666666" d="M209.775,183.115c2.287-0.374,4.935-0.362,7.945,0.035&#10;&#9;&#9;c3.01,0.397,6.16,1.039,9.45,1.925s6.499,1.878,9.625,2.975c3.127,1.097,5.95,2.158,8.47,3.185c2.543,1.003,4.562,1.843,6.055,2.52&#10;&#9;&#9;c1.517,0.654,2.287,0.992,2.31,1.015c-0.023,0-0.653-0.047-1.89-0.14c-1.237-0.07-2.917-0.175-5.04-0.314&#10;&#9;&#9;c-2.1-0.14-4.457-0.304-7.07-0.49c-2.637-0.164-5.343-0.338-8.12-0.525c-2.776-0.164-5.46-0.327-8.05-0.49s-4.912-0.303-6.965-0.42&#10;&#9;&#9;c-2.054-0.093-3.663-0.163-4.83-0.21c-1.563-0.023-3.348,0.198-5.355,0.665c-2.03,0.466-4.095,0.992-6.195,1.575&#10;&#9;&#9;c-2.1,0.607-4.06,1.097-5.88,1.47c-1.819,0.396-3.313,0.501-4.48,0.315c-1.167-0.164-1.808-0.793-1.925-1.89&#10;&#9;&#9;c-0.117-1.867,0.712-3.5,2.485-4.9c1.773-1.376,4.328-2.578,7.665-3.605C201.317,184.784,205.249,183.885,209.775,183.115z"/>
  </g>
  <g transform="matrix(1, 0, 0, 1, -146.251999, -16.005999)">
    <path fill-rule="evenodd" clip-rule="evenodd" fill="#666666" d="M330.805,183.57c2.8-0.443,5.238-0.595,7.314-0.455&#10;&#9;&#9;c3.058,0.257,5.915,0.921,8.575,1.995c2.637,1.074,4.889,2.368,6.755,3.885c1.867,1.517,3.162,3.068,3.885,4.655&#10;&#9;&#9;c0.724,1.61,0.688,3.068-0.104,4.375c-0.677,0.98-1.75,1.4-3.22,1.26c-1.447-0.163-3.15-0.653-5.11-1.469&#10;&#9;&#9;c-1.937-0.817-3.967-1.727-6.09-2.73c-2.146-1.003-4.235-1.867-6.265-2.59c-2.007-0.723-3.815-1.05-5.425-0.98&#10;&#9;&#9;c-1.354,0.07-3.127,0.175-5.32,0.315c-2.193,0.14-4.585,0.303-7.175,0.49c-2.591,0.163-5.181,0.338-7.771,0.525&#10;&#9;&#9;c-2.566,0.163-4.935,0.327-7.104,0.49c-2.147,0.14-3.873,0.257-5.181,0.35c-1.307,0.093-1.972,0.14-1.994,0.14&#10;&#9;&#9;c0.046-0.023,0.793-0.303,2.239-0.84c1.447-0.56,3.396-1.271,5.845-2.135c2.427-0.863,5.134-1.773,8.12-2.73&#10;&#9;&#9;c3.011-0.957,6.067-1.843,9.17-2.66C325.053,184.644,328.005,184.014,330.805,183.57z"/>
  </g>
  <g transform="matrix(1, 0, 0, 1, -146.251999, -16.005999)">
    <path fill-rule="evenodd" clip-rule="evenodd" fill="none" stroke="#000000" stroke-linecap="round" stroke-linejoin="round" stroke-miterlimit="3" d="&#10;&#9;&#9;M354.85,103.035c-1.913-3.826-4.328-7.303-7.245-10.43c-2.917-3.103-6.51-5.693-10.78-7.77c-2.963-1.446-5.845-2.543-8.645-3.29&#10;&#9;&#9;c-2.8-0.723-5.623-0.992-8.47-0.805c-2.847,0.187-5.857,0.957-9.03,2.31c-2.8,1.213-5.577,2.497-8.33,3.85&#10;&#9;&#9;c-2.776,1.33-5.565,2.625-8.365,3.885c-1.05,0.467-2.182,1.004-3.395,1.61c-1.19,0.607-2.392,1.19-3.605,1.75&#10;&#9;&#9;c-1.213,0.56-2.368,0.992-3.465,1.295c-0.91,0.257-1.96,0.513-3.149,0.77c-1.19,0.233-2.368,0.432-3.535,0.595&#10;&#9;&#9;c-1.19,0.187-2.24,0.28-3.15,0.28c-0.91-0.023-1.937-0.117-3.08-0.28c-1.12-0.164-2.252-0.362-3.395-0.595&#10;&#9;&#9;c-1.144-0.257-2.158-0.513-3.045-0.77c-1.097-0.327-2.252-0.758-3.465-1.295c-1.213-0.56-2.427-1.143-3.64-1.75&#10;&#9;&#9;c-1.189-0.606-2.31-1.143-3.36-1.61c-2.823-1.26-5.611-2.555-8.365-3.885c-2.753-1.353-5.542-2.637-8.365-3.85&#10;&#9;&#9;c-3.15-1.354-6.148-2.124-8.995-2.31c-2.87-0.187-5.693,0.082-8.47,0.805c-2.8,0.747-5.682,1.844-8.645,3.29&#10;&#9;&#9;c-4.27,2.077-7.863,4.667-10.78,7.77c-2.917,3.127-5.332,6.615-7.245,10.465c-1.913,3.827-3.488,7.864-4.725,12.11&#10;&#9;&#9;c-1.236,4.247-2.333,8.529-3.29,12.845c-0.934,4.316-1.89,8.505-2.87,12.565c-1.027,4.27-2.182,8.458-3.465,12.565&#10;&#9;&#9;c-1.26,4.13-2.858,8.143-4.795,12.04c-1.33,2.707-2.229,5.402-2.695,8.085c-0.49,2.683-0.758,5.413-0.805,8.19&#10;&#9;&#9;c-0.07,2.777-0.164,5.658-0.28,8.645c-0.303,5.133-0.583,10.196-0.84,15.189s-0.304,10.011-0.14,15.05&#10;&#9;&#9;c0.164,5.018,0.723,10.115,1.68,15.295c0.513,2.544,1.202,5.028,2.065,7.455c0.863,2.403,1.762,4.807,2.695,7.211&#10;&#9;&#9;c0.933,2.38,1.762,4.817,2.485,7.314c0.677,2.497,1.284,5.005,1.82,7.524c0.537,2.497,1.097,4.994,1.68,7.49&#10;&#9;&#9;c0.583,2.474,1.295,4.936,2.135,7.385c1.33,3.943,2.753,8.004,4.27,12.181c1.54,4.199,3.29,8.295,5.25,12.285&#10;&#9;&#9;c1.96,4.013,4.247,7.723,6.86,11.13c2.613,3.43,5.658,6.347,9.135,8.749c3.687,2.544,7.164,5.438,10.43,8.681&#10;&#9;&#9;c3.243,3.243,6.405,6.603,9.485,10.08c3.104,3.499,6.242,6.906,9.415,10.22s6.533,6.323,10.08,9.029&#10;&#9;&#9;c3.546,2.685,7.396,4.843,11.55,6.476c4.177,1.657,8.785,2.555,13.825,2.695c5.04,0.069,9.648-0.665,13.825-2.205&#10;&#9;&#9;c4.176-1.563,8.038-3.687,11.584-6.37c3.547-2.707,6.907-5.74,10.08-9.1c3.197-3.384,6.336-6.86,9.415-10.431&#10;&#9;&#9;c3.104-3.569,6.289-7,9.556-10.29c3.243-3.313,6.708-6.241,10.395-8.785c3.5-2.402,6.557-5.319,9.17-8.749&#10;&#9;&#9;c2.613-3.407,4.9-7.117,6.86-11.13c1.96-3.99,3.698-8.086,5.215-12.285c1.54-4.177,2.975-8.237,4.305-12.181&#10;&#9;&#9;c0.816-2.427,1.517-4.888,2.101-7.385c0.606-2.496,1.178-4.993,1.715-7.49c0.536-2.52,1.143-5.027,1.819-7.524&#10;&#9;&#9;c0.7-2.497,1.518-4.935,2.45-7.314c0.934-2.404,1.832-4.808,2.695-7.211s1.563-4.888,2.1-7.455&#10;&#9;&#9;c0.957-5.18,1.517-10.277,1.68-15.295c0.164-5.039,0.117-10.057-0.14-15.05c-0.28-5.016-0.56-10.08-0.84-15.189&#10;&#9;&#9;c-0.116-2.987-0.21-5.868-0.28-8.645c-0.069-2.777-0.338-5.507-0.805-8.19c-0.467-2.707-1.365-5.402-2.695-8.085&#10;&#9;&#9;c-1.937-3.897-3.547-7.898-4.83-12.005c-1.283-4.13-2.438-8.33-3.465-12.6c-0.979-4.06-1.937-8.249-2.87-12.565&#10;&#9;&#9;c-0.933-4.316-2.018-8.598-3.255-12.845C358.314,110.934,356.739,106.885,354.85,103.035z"/>
  </g>
  <g transform="matrix(1, 0, 0, 1, -146.251999, -16.005999)">
    <path fill-rule="evenodd" clip-rule="evenodd" fill="#666666" d="M287.159,29.781c-0.209,1.354-0.385,3.197-0.524,5.53&#10;&#9;&#9;c-0.14,2.31-0.116,4.935,0.07,7.875s0.653,6.008,1.399,9.205c0.747,3.197,1.902,6.347,3.466,9.45c1.539,3.08,3.628,5.95,6.265,8.61&#10;&#9;&#9;c2.613,2.637,5.892,4.865,9.835,6.685c3.92,1.843,8.621,3.104,14.104,3.78c-0.023,0.023-1.085,0.501-3.185,1.435&#10;&#9;&#9;c-2.077,0.91-4.947,2.123-8.61,3.64c-3.687,1.54-7.945,3.22-12.774,5.04c-4.83,1.82-10.01,3.64-15.54,5.46&#10;&#9;&#9;c-5.53,1.82-11.188,3.488-16.975,5.005c-5.787,1.517-11.492,2.742-17.115,3.675c-5.6,0.91-10.885,1.377-15.855,1.4&#10;&#9;&#9;c-3.804-0.047-6.767-0.945-8.89-2.695c-2.124-1.773-3.558-4.188-4.305-7.245c-0.747-3.08-0.957-6.58-0.63-10.5&#10;&#9;&#9;c0.303-3.92,0.992-8.062,2.065-12.425c1.05-4.363,2.31-8.727,3.78-13.09c1.493-4.363,3.033-8.517,4.62-12.46&#10;&#9;&#9;c1.61-3.92,3.104-7.42,4.48-10.5c1.4-3.057,2.532-5.472,3.395-7.245c0.863-1.773,1.307-2.671,1.33-2.695&#10;&#9;&#9;c-0.023,0.023-0.222,0.758-0.595,2.205c-0.397,1.47-0.852,3.441-1.365,5.915c-0.513,2.45-0.98,5.238-1.4,8.365&#10;&#9;&#9;c-0.42,3.103-0.688,6.323-0.805,9.66c-0.093,3.36,0.082,6.639,0.525,9.835c0.443,3.196,1.284,6.137,2.521,8.82&#10;&#9;&#9;c1.213,2.66,2.939,4.853,5.18,6.58c2.216,1.727,5.063,2.8,8.54,3.22c-1.843-2.894-2.94-6.207-3.29-9.94S246.7,64.71,247.4,60.581&#10;&#9;&#9;c0.723-4.13,1.773-8.26,3.15-12.39c1.377-4.154,2.894-8.097,4.55-11.83c1.657-3.71,3.243-7.023,4.76-9.94&#10;&#9;&#9;c1.493-2.917,2.73-5.204,3.71-6.86c0.933-1.61,1.435-2.461,1.505-2.555c-0.047,0.07-0.233,0.793-0.56,2.17&#10;&#9;&#9;c-0.327,1.447-0.724,3.395-1.19,5.845c-0.466,2.45-0.875,5.215-1.225,8.295c-0.374,3.08-0.583,6.265-0.63,9.555&#10;&#9;&#9;c-0.046,3.313,0.175,6.533,0.665,9.66c0.49,3.126,1.342,5.973,2.555,8.54c1.237,2.566,2.952,4.667,5.145,6.3&#10;&#9;&#9;c2.193,1.61,4.97,2.543,8.33,2.8c-1.96-3.267-3.255-6.452-3.885-9.555c-0.63-3.08-0.758-6.032-0.385-8.855&#10;&#9;&#9;c0.373-2.823,1.062-5.46,2.065-7.91c1.003-2.427,2.158-4.631,3.465-6.615c1.283-1.983,2.543-3.687,3.78-5.11&#10;&#9;&#9;c1.213-1.423,2.229-2.509,3.045-3.255c0.793-0.771,1.201-1.155,1.225-1.155C287.451,27.739,287.347,28.428,287.159,29.781z"/>
    <path fill-rule="evenodd" clip-rule="evenodd" fill="none" stroke="#000000" stroke-linecap="round" stroke-linejoin="round" stroke-miterlimit="3" d="&#10;&#9;&#9;M287.159,29.781c-0.209,1.354-0.385,3.197-0.524,5.53c-0.14,2.31-0.116,4.935,0.07,7.875s0.653,6.008,1.399,9.205&#10;&#9;&#9;c0.747,3.197,1.902,6.347,3.466,9.45c1.539,3.08,3.628,5.95,6.265,8.61c2.613,2.637,5.892,4.865,9.835,6.685&#10;&#9;&#9;c3.92,1.843,8.621,3.104,14.104,3.78c-0.023,0.023-1.085,0.501-3.185,1.435c-2.077,0.91-4.947,2.123-8.61,3.64&#10;&#9;&#9;c-3.687,1.54-7.945,3.22-12.774,5.04c-4.83,1.82-10.01,3.64-15.54,5.46c-5.53,1.82-11.188,3.488-16.975,5.005&#10;&#9;&#9;c-5.787,1.517-11.492,2.742-17.115,3.675c-5.6,0.91-10.885,1.377-15.855,1.4c-3.804-0.047-6.767-0.945-8.89-2.695&#10;&#9;&#9;c-2.124-1.773-3.558-4.188-4.305-7.245c-0.747-3.08-0.957-6.58-0.63-10.5c0.303-3.92,0.992-8.062,2.065-12.425&#10;&#9;&#9;c1.05-4.363,2.31-8.727,3.78-13.09c1.493-4.363,3.033-8.517,4.62-12.46c1.61-3.92,3.104-7.42,4.48-10.5&#10;&#9;&#9;c1.4-3.057,2.532-5.472,3.395-7.245c0.863-1.773,1.307-2.671,1.33-2.695c-0.023,0.023-0.222,0.758-0.595,2.205&#10;&#9;&#9;c-0.397,1.47-0.852,3.441-1.365,5.915c-0.513,2.45-0.98,5.238-1.4,8.365c-0.42,3.103-0.688,6.323-0.805,9.66&#10;&#9;&#9;c-0.093,3.36,0.082,6.639,0.525,9.835c0.443,3.196,1.284,6.137,2.521,8.82c1.213,2.66,2.939,4.853,5.18,6.58&#10;&#9;&#9;c2.216,1.727,5.063,2.8,8.54,3.22c-1.843-2.894-2.94-6.207-3.29-9.94S246.7,64.71,247.4,60.581c0.723-4.13,1.773-8.26,3.15-12.39&#10;&#9;&#9;c1.377-4.154,2.894-8.097,4.55-11.83c1.657-3.71,3.243-7.023,4.76-9.94c1.493-2.917,2.73-5.204,3.71-6.86&#10;&#9;&#9;c0.933-1.61,1.435-2.461,1.505-2.555c-0.047,0.07-0.233,0.793-0.56,2.17c-0.327,1.447-0.724,3.395-1.19,5.845&#10;&#9;&#9;c-0.466,2.45-0.875,5.215-1.225,8.295c-0.374,3.08-0.583,6.265-0.63,9.555c-0.046,3.313,0.175,6.533,0.665,9.66&#10;&#9;&#9;c0.49,3.126,1.342,5.973,2.555,8.54c1.237,2.566,2.952,4.667,5.145,6.3c2.193,1.61,4.97,2.543,8.33,2.8&#10;&#9;&#9;c-1.96-3.267-3.255-6.452-3.885-9.555c-0.63-3.08-0.758-6.032-0.385-8.855c0.373-2.823,1.062-5.46,2.065-7.91&#10;&#9;&#9;c1.003-2.427,2.158-4.631,3.465-6.615c1.283-1.983,2.543-3.687,3.78-5.11c1.213-1.423,2.229-2.509,3.045-3.255&#10;&#9;&#9;c0.793-0.771,1.201-1.155,1.225-1.155C287.451,27.739,287.347,28.428,287.159,29.781z"/>
  </g>
</svg>