<?xml version="1.0" encoding="utf-8"?>
<svg viewBox="0 0 45 75" xmlns="http://www.w3.org/2000/svg">
  <defs>
    <filter id="f1">
      <feOffset result="offOut" in="SourceAlpha" dx="1" dy="1"/>
      <feGaussianBlur result="blurOut" in="offOut" stdDeviation="1"/>
      <feComponentTransfer>
        <feFuncA type="linear" slope="0.4"/>
      </feComponentTransfer>
      <feMerge>
        <feMergeNode/>
        <feMergeNode in="SourceGraphic"/>
      </feMerge>
    </filter>
    <linearGradient id="gradient-0" gradientUnits="userSpaceOnUse" x1="0" y1="0" x2="0" y2="7" spreadMethod="reflect">
      <stop offset="0" style="stop-color: rgb(51, 51, 51);"/>
      <stop offset="0.5" style="stop-color: rgb(207, 207, 207);"/>
      <stop offset="1" style="stop-color: rgb(51, 51, 51);"/>
    </linearGradient>
    <linearGradient id="gradient-1" gradientUnits="userSpaceOnUse" x1="1" y1="0" x2="8" y2="0" spreadMethod="reflect">
      <stop offset="0" style="stop-color: rgb(51, 51, 51);"/>
      <stop offset="0.5" style="stop-color: rgb(207, 207, 207);"/>
      <stop offset="1" style="stop-color: rgb(51, 51, 51);"/>
    </linearGradient>
  </defs>
  <g filter="url(#f1)">
    <g transform="matrix(-1, 0, 0, 1, 40, 0)">
      <g>
        <rect x="5" width="1" height="70" style="fill: rgb(96, 96, 96);"/>
        <rect x="12" width="1" height="70" style="fill: rgb(96, 96, 96);"/>
        <rect x="19" width="1" height="70" style="fill: rgb(96, 96, 96);"/>
        <rect x="26" width="1" height="70" style="fill: rgb(96, 96, 96);"/>
        <rect x="33" width="1" height="70" style="fill: rgb(96, 96, 96);"/>
        <rect x="1" y="4" width="39" height="1" style="fill: rgb(96, 96, 96);"/>
        <rect x="1" y="11" width="39" height="1" style="fill: rgb(96, 96, 96);"/>
        <rect x="1" y="18" width="39" height="1" style="fill: rgb(96, 96, 96);"/>
        <rect x="1" y="25" width="39" height="1" style="fill: rgb(96, 96, 96);"/>
        <rect x="1" y="32" width="39" height="1" style="fill: rgb(96, 96, 96);"/>
        <rect x="1" y="39" width="39" height="1" style="fill: rgb(96, 96, 96);"/>
        <rect x="1" y="46" width="39" height="1" style="fill: rgb(96, 96, 96);"/>
        <rect x="1" y="53" width="39" height="1" style="fill: rgb(96, 96, 96);"/>
        <rect x="1" y="60" width="39" height="1" style="fill: rgb(96, 96, 96);"/>
        <rect x="1" y="67" width="39" height="1" style="fill: rgb(96, 96, 96);"/>
      </g>
      <g>
        <rect width="7" height="70" x="1" style="fill: url(#gradient-1);"/>
        <rect width="40" height="7" style="fill: url(#gradient-0);"/>
      </g>
    </g>
  </g>
</svg>