<?xml version="1.0" encoding="utf-8"?>
<svg id="svg2" viewBox="0 0 300 327" xmlns="http://www.w3.org/2000/svg">
  <path d="M 134.313 0.094 L 134.313 40.813 L 103.719 23.125 L 88.188 49.938 L 134.313 76.656 L 134.313 136.75 L 82.5 106.813 L 82.406 53.281 L 51.406 53.344 L 51.469 88.906 L 16.094 68.469 L 0.594 95.313 L 35.875 115.688 L 5.25 133.313 L 20.688 160.188 L 66.906 133.594 L 118.906 163.625 L 67.094 193.531 L 20.688 166.844 L 5.25 193.719 L 36.063 211.469 L 0.688 231.875 L 16.188 258.719 L 51.469 238.344 L 51.406 273.688 L 82.406 273.75 L 82.5 220.438 L 134.5 190.438 L 134.5 250.25 L 88.188 277.094 L 103.719 303.906 L 134.5 286.094 L 134.5 326.938 L 165.5 326.938 L 165.5 286.219 L 196.094 303.906 L 211.625 277.094 L 165.5 250.375 L 165.5 190.281 L 217.313 220.219 L 217.406 273.75 L 248.406 273.688 L 248.344 238.125 L 283.719 258.563 L 299.219 231.719 L 263.938 211.344 L 294.563 193.719 L 279.125 166.844 L 232.938 193.438 L 180.906 163.406 L 232.75 133.469 L 279.125 160.188 L 294.563 133.313 L 263.75 115.563 L 299.125 95.156 L 283.625 68.313 L 248.344 88.688 L 248.406 53.344 L 217.406 53.281 L 217.313 106.594 L 165.313 136.594 L 165.313 76.781 L 211.625 49.938 L 196.094 23.125 L 165.313 40.938 L 165.313 0.094 L 134.313 0.094 Z" id="rect2991" style="fill-opacity: 1; stroke: none; fill: rgb(255, 255, 255);"/>
</svg>