<?xml version="1.0" encoding="utf-8"?>
<svg width="374.81280517578125" height="374.2314758300781" viewBox="0 0 442 410" xmlns="http://www.w3.org/2000/svg">
  <ellipse cx="142.846" cy="170.977" rx="141.773" ry="117.213" style="fill: rgb(255, 255, 255);"/>
  <ellipse cx="280.152" cy="136.928" rx="160.75" ry="135.633" style="fill: rgb(255, 255, 255);"/>
  <rect x="154.731" y="70.372" width="16.119" height="90" transform="matrix(-0.923878, 0.382686, -0.382683, -0.92388, 305.524332, 391.78104)" style="fill: rgb(255, 255, 255);"/>
  <rect x="154.731" y="70.372" width="16.119" height="90" transform="matrix(-0.923878, 0.382686, -0.382683, -0.92388, 393.123172, 408.57172)" style="fill: rgb(255, 255, 255);"/>
  <rect x="154.731" y="70.372" width="16.119" height="90" transform="matrix(-0.923877, 0.382686, -0.382683, -0.92388, 545.597433, 390.665712)" style="fill: rgb(255, 255, 255);"/>
  <rect x="154.732" y="70.372" width="16.119" height="90" transform="matrix(-0.923877, 0.38269, -0.382683, -0.92388, 463.152502, 383.930172)" style="fill: rgb(255, 255, 255);"/>
  <rect x="154.732" y="70.372" width="16.119" height="90" transform="matrix(-0.923877, 0.38269, -0.382683, -0.92388, 607.144293, 348.624874)" style="fill: rgb(255, 255, 255);"/>
</svg>