<?xml version="1.0" encoding="utf-8"?>
<svg viewBox="0 0 100 100" xmlns="http://www.w3.org/2000/svg">
  <path d="M 50 95.248 L 55.226 100 L 59.356 94.26 L 65.451 97.815 L 68.303 91.337 L 75 93.54 L 76.45 86.607 L 83.457 87.362 L 83.442 80.277 L 90.451 79.551 L 88.971 72.624 L 95.677 70.449 L 92.798 63.983 L 98.907 60.453 L 94.753 54.73 L 100 50 L 94.753 45.27 L 98.907 39.547 L 92.798 36.017 L 95.677 29.551 L 88.971 27.376 L 90.451 20.449 L 83.442 19.723 L 83.457 12.638 L 76.45 13.393 L 75 6.46 L 68.303 8.663 L 65.451 2.185 L 59.356 5.74 L 55.226 0 L 50 4.752 L 44.774 0 L 40.644 5.74 L 34.549 2.185 L 31.697 8.663 L 25 6.46 L 23.55 13.393 L 16.543 12.638 L 16.558 19.723 L 9.549 20.449 L 11.029 27.376 L 4.323 29.551 L 7.202 36.017 L 1.093 39.547 L 5.247 45.27 L 0 50 L 5.247 54.73 L 1.093 60.453 L 7.202 63.983 L 4.323 70.449 L 11.029 72.624 L 9.549 79.551 L 16.558 80.277 L 16.543 87.362 L 23.55 86.607 L 25 93.54 L 31.697 91.337 L 34.549 97.815 L 40.644 94.26 L 44.774 100 L 50 95.248 Z" style="fill: rgb(255, 255, 0); stroke: rgb(0, 0, 0); stroke-width: 0.5;"/>
</svg>