<?xml version="1.0" encoding="utf-8"?>
<svg viewBox="0 0 394 394" xmlns="http://www.w3.org/2000/svg">
  <!-- rgb(255, 213, 0) -->
  <ellipse cx="240.009" cy="239.755" rx="82.847" ry="82.847" transform="matrix(0.382684, 0.92388, -0.923879, 0.382684, 326.816625, -115.594084)" style="fill: rgb(255, 255, 255);"/>
  <rect x="223.332" y="41.782" width="33.354" height="87.151" transform="matrix(0.382683, 0.92388, -0.923879, 0.382683, 324.207075, -114.509738)" style="fill: rgb(255, 255, 255);"/>
  <rect x="320.167" y="68.144" width="33.354" height="87.151" transform="matrix(-0.382683, 0.923879, -0.92388, -0.382684, 569.715217, -12.381665)" style="fill: rgb(255, 255, 255);"/>
  <rect x="320.167" y="68.144" width="33.354" height="87.151" transform="matrix(-0.92388, 0.382685, -0.382684, -0.92388, 609.303614, 312.681393)" style="fill: rgb(255, 255, 255);"/>
  <rect x="-214.017" y="-392.615" width="33.354" height="87.151" transform="matrix(-0.923879, -0.382683, 0.382683, -0.92388, 90.532324, -60.356672)" style="fill: rgb(255, 255, 255);"/>
  <rect x="320.167" y="68.144" width="33.354" height="87.151" transform="matrix(-0.382686, -0.923879, 0.92388, -0.382684, 82.750192, 609.892347)" style="fill: rgb(255, 255, 255);"/>
  <rect x="320.167" y="68.144" width="33.354" height="87.151" transform="matrix(-0.382682, 0.92388, -0.92388, -0.382683, 288.183079, -128.996344)" style="fill: rgb(255, 255, 255);"/>
  <rect x="320.167" y="68.144" width="33.354" height="87.151" transform="matrix(-0.923879, 0.382682, -0.382683, -0.92388, 492.936415, 31.737271)" style="fill: rgb(255, 255, 255);"/>
  <rect x="-214.017" y="-89.316" width="33.354" height="87.151" transform="matrix(-0.923879, -0.382684, 0.382683, -0.92388, 90.532338, -60.356807)" style="fill: rgb(255, 255, 255);"/>
</svg>