<?xml version="1.0" encoding="utf-8"?>
<svg viewBox="0 0 40 70" xmlns="http://www.w3.org/2000/svg">
  <g transform="matrix(-1, 0, 0, 1, 40, 0)">
    <g>
      <rect x="2" width="1" height="70" style="fill: rgba(255, 255, 255, 0.5);"/>
      <rect x="6" width="1" height="70" style="fill: rgba(255, 255, 255, 0.5);"/>
      <rect x="10" width="1" height="70" style="fill: rgba(255, 255, 255, 0.5);"/>
      <rect x="14" width="1" height="70" style="fill: rgba(255, 255, 255, 0.5);"/>
      <rect x="18" width="1" height="70" style="fill: rgba(255, 255, 255, 0.5);"/>
      <rect x="22" width="1" height="70" style="fill: rgba(255, 255, 255, 0.5);"/>
      <rect x="26" width="1" height="70" style="fill: rgba(255, 255, 255, 0.5);"/>
      <rect x="30" width="1" height="70" style="fill: rgba(255, 255, 255, 0.5);"/>
      <rect x="34" width="1" height="70" style="fill: rgba(255, 255, 255, 0.5);"/>
      <rect x="38" width="1" height="70" style="fill: rgba(255, 255, 255, 0.5);"/>
      <rect x="37" width="1" height="70" style="fill: rgba(255, 255, 255, 0.5);"/>
      <rect y="1" width="40" height="1" style="fill: rgba(255, 255, 255, 0.5);"/>
      <rect y="5" width="40" height="1" style="fill: rgba(255, 255, 255, 0.5);"/>
      <rect y="9" width="40" height="1" style="fill: rgba(255, 255, 255, 0.5);"/>
      <rect y="13" width="40" height="1" style="fill: rgba(255, 255, 255, 0.5);"/>
      <rect y="17" width="40" height="1" style="fill: rgba(255, 255, 255, 0.5);"/>
      <rect y="21" width="40" height="1" style="fill: rgba(255, 255, 255, 0.5);"/>
      <rect y="25" width="40" height="1" style="fill: rgba(255, 255, 255, 0.5);"/>
      <rect y="29" width="40" height="1" style="fill: rgba(255, 255, 255, 0.5);"/>
      <rect y="33" width="40" height="1" style="fill: rgba(255, 255, 255, 0.5);"/>
      <rect y="37" width="40" height="1" style="fill: rgba(255, 255, 255, 0.5);"/>
      <rect y="41" width="40" height="1" style="fill: rgba(255, 255, 255, 0.5);"/>
      <rect y="45" width="40" height="1" style="fill: rgba(255, 255, 255, 0.5);"/>
      <rect y="49" width="40" height="1" style="fill: rgba(255, 255, 255, 0.5);"/>
      <rect y="53" width="40" height="1" style="fill: rgba(255, 255, 255, 0.5);"/>
      <rect y="57" width="40" height="1" style="fill: rgba(255, 255, 255, 0.5);"/>
      <rect y="61" width="40" height="1" style="fill: rgba(255, 255, 255, 0.5);"/>
      <rect y="65" width="40" height="1" style="fill: rgba(255, 255, 255, 0.5);"/>
      <rect y="69" width="40" height="1" style="fill: rgba(255, 255, 255, 0.5);"/>
    </g>
    <path d="M 1.5 1.5 L 38.5 1.5 L 38.5 68.5" style="fill: none; stroke-width: 3; stroke-linecap: square; stroke-linejoin: round; stroke: #fff;"/>
  </g>
</svg>