<?xml version="1.0" encoding="utf-8"?>
<svg id="Layer_1" x="0px" y="0px" width="550px" height="400px" viewBox="0 0 400 260" xmlns="http://www.w3.org/2000/svg">
  <path fill-rule="evenodd" clip-rule="evenodd" d="M 398.1 178.1 C 394.6 195.833 392.75 208.367 392.55 215.7 C 391.35 221.634 390.267 227.566 389.3 233.5 C 385.366 233.467 381.484 233.434 377.651 233.4 C 376.584 227.466 375.517 221.466 374.451 215.4 C 374.651 208 376.385 195.65 379.651 178.35 C 383.084 160.683 376.251 148.733 359.151 142.499 C 364.751 141.999 370.55 141.749 376.55 141.749 C 394.55 147.884 401.733 160 398.1 178.1 Z M 352.4 170.6 C 350.066 191.867 348.333 207.4 347.2 217.2 C 347.066 227.334 346.983 237.516 346.95 247.75 C 347.316 248.017 347.683 248.351 348.05 248.75 C 348.684 248.75 349.384 248.75 350.151 248.75 C 350.451 248.351 350.8 248 351.201 247.7 C 351.267 237.433 351.317 227.217 351.35 217.05 C 352.451 207.184 354.201 191.517 356.6 170.05 C 356.201 169.417 355.8 168.851 355.401 168.351 C 354.668 168.451 353.984 168.55 353.35 168.651 C 353.05 169.183 352.733 169.834 352.4 170.6 Z M 354.1 143 C 367.967 147.5 374.767 156.2 374.5 169.101 C 374.1 181.967 372.566 193.567 369.9 203.901 C 369.133 218.335 368.9 231.817 369.2 244.351 C 369.134 252.217 365.134 256.217 357.2 256.351 C 351.8 256.351 346.45 256.351 341.15 256.351 C 333.016 256.184 329.066 252.267 329.299 244.601 C 329.499 235.901 329.699 227.25 329.9 218.651 C 330.2 211.017 331.966 198.501 335.2 181.101 C 334.533 166.467 337.25 158.767 343.349 158 C 346.116 157.5 348.95 157 351.849 156.5 C 351.883 155.967 351.9 155.417 351.9 154.851 C 349 150.451 344.233 147.317 337.599 145.451 C 342.967 144.45 348.467 143.634 354.1 143 Z M 298.9 158.05 C 299.766 157.984 300.616 157.984 301.45 158.05 C 298.65 155.817 298.783 154.384 301.849 153.75 C 302.15 153.684 302.433 153.601 302.7 153.5 C 311.366 150.4 319.616 153.55 327.45 162.95 C 330.616 172.884 330.717 183.6 327.75 195.1 C 325.15 206.033 324.017 214.033 324.35 219.1 C 323.984 231.466 323.617 243.883 323.25 256.35 C 317.25 256.35 311.3 256.35 305.4 256.35 C 305.966 243.883 306.583 231.533 307.25 219.299 C 307.217 213.999 308.566 205.749 311.3 194.549 C 314.234 183.016 313.634 172.733 309.5 163.699 C 308.833 163.299 308.233 162.949 307.7 162.649 C 307 162.849 306.349 162.982 305.75 163.048 C 305.684 163.548 305.616 164.048 305.55 164.548 C 309.517 173.548 310.067 183.732 307.2 195.099 C 304.467 206.132 303.116 214.282 303.15 219.548 C 302.417 231.748 301.733 244.015 301.099 256.349 C 295.066 256.349 289.033 256.349 282.999 256.349 C 284.065 243.015 285.115 229.732 286.149 216.498 C 287.782 208.798 289.615 198.748 291.649 186.349 C 293.715 173.782 289.298 164.882 278.399 159.649 C 283.632 158.382 288.798 157.116 293.899 155.849 C 295.833 156.384 297.5 157.117 298.9 158.05 Z M 273.5 160.8 C 288.033 173.167 290.816 189.717 281.85 210.45 C 280.217 222.783 279.05 234.5 278.35 245.6 C 277.684 252.666 273.35 256.249 265.35 256.35 C 260.017 256.35 254.684 256.35 249.35 256.35 C 241.217 256.216 237.55 252.816 238.35 246.15 C 239.384 235.383 240.75 224.066 242.451 212.2 C 250.284 193.533 248.434 178.266 236.901 166.4 C 242.6 165.966 248.234 165.334 253.8 164.5 C 266.667 177.467 268.717 193.834 259.95 213.601 C 258.45 225.634 257.15 237.384 256.05 248.851 C 256.384 249.084 256.717 249.384 257.05 249.75 C 257.717 249.75 258.434 249.733 259.2 249.7 C 259.5 249.4 259.849 249.1 260.25 248.8 C 261.316 237.367 262.583 225.584 264.05 213.45 C 272.917 193.417 270.767 176.9 257.6 163.9 C 263.033 163 268.333 161.967 273.5 160.8 Z M 374.55 237.75 C 380.417 237.75 386.417 237.8 392.55 237.9 C 392.55 243.966 392.55 250.084 392.55 256.25 C 386.45 256.184 380.467 256.167 374.6 256.2 C 374.6 250 374.583 243.85 374.55 237.75 Z M 72.85 176.2 C 72.883 192.3 72.733 207.983 72.4 223.25 C 72.8 223.617 73.15 223.983 73.45 224.351 C 74.217 224.317 75 224.334 75.8 224.401 C 76.2 224.001 76.55 223.668 76.85 223.401 C 77.317 208.201 77.517 192.451 77.45 176.151 C 77.117 175.751 76.733 175.401 76.3 175.101 C 75.5 175.067 74.7 175.084 73.9 175.151 C 73.6 175.45 73.25 175.8 72.85 176.2 Z M 82.2 166.85 C 90.6 166.65 95.283 170.45 96.25 178.249 C 96.183 193.315 95.8 207.499 95.1 220.799 C 95.067 223.433 94.367 225.449 93 226.85 C 91.667 228.216 89.817 228.916 87.45 228.95 C 87.45 229.584 87.4 230.283 87.3 231.05 C 89.734 231.351 91.584 232.25 92.85 233.75 C 94.183 235.184 94.8 237.217 94.7 239.851 C 94.567 245.284 94.433 250.784 94.3 256.351 C 88.4 256.351 82.45 256.351 76.45 256.351 C 76.55 249.118 76.65 241.951 76.75 234.851 C 76.45 234.451 76.1 234.101 75.7 233.8 C 74.967 233.734 74.233 233.717 73.5 233.75 C 73.133 234.017 72.767 234.351 72.4 234.75 C 72.367 241.884 72.283 249.084 72.15 256.351 C 66.183 256.351 60.167 256.351 54.1 256.351 C 54.1 226.417 54.1 196.601 54.1 166.901 C 63.467 166.9 72.833 166.884 82.2 166.85 Z M 216.25 175.15 C 214.05 207.35 212.033 231.883 210.2 248.75 C 210.533 249.05 210.866 249.351 211.2 249.65 C 211.866 249.617 212.583 249.633 213.349 249.7 C 213.683 249.334 214.066 249.016 214.499 248.75 C 216.399 232.084 218.482 207.55 220.749 175.15 C 220.216 174.716 219.683 174.35 219.149 174.049 C 218.348 174.049 217.615 174.049 216.949 174.049 C 216.717 174.417 216.483 174.783 216.25 175.15 Z M 240.15 177.25 C 236.816 208.483 234.349 231.384 232.75 245.95 C 231.95 252.75 227.55 256.217 219.55 256.35 C 214.217 256.35 208.884 256.35 203.55 256.35 C 195.617 256.249 191.9 252.733 192.4 245.799 C 193.6 229.566 195.55 206.916 198.25 177.85 C 194.883 169.783 196.533 166.117 203.2 166.85 C 208.599 166.883 214.05 166.9 219.55 166.9 C 228.75 165.9 235.616 169.35 240.15 177.25 Z M 173.15 184.95 C 172.45 184.95 171.7 184.95 170.9 184.95 C 170.5 185.283 170.117 185.683 169.75 186.15 C 166.65 210.917 164.833 231.667 164.3 248.4 C 164.633 248.667 164.967 248.983 165.3 249.35 C 166.033 249.383 166.767 249.4 167.5 249.4 C 167.867 249.033 168.233 248.716 168.6 248.45 C 169.2 231.783 171.083 211.033 174.25 186.2 C 173.95 185.667 173.583 185.25 173.15 184.95 Z M 192.75 191.95 C 189.283 213.417 187.283 231.266 186.75 245.5 C 186.25 252.601 181.95 256.217 173.85 256.351 C 168.45 256.351 163.117 256.351 157.85 256.351 C 149.85 256.217 146 252.55 146.3 245.351 C 146.867 233.517 147.567 221.417 148.4 209.05 C 152.367 193.283 151.467 179.234 145.7 166.901 C 151.833 166.835 157.85 166.835 163.75 166.901 C 166.083 169.201 167.683 172.034 168.55 175.401 C 169.05 175.8 169.5 176.184 169.9 176.55 C 173.1 176.484 176.25 176.467 179.35 176.5 C 188.483 176.066 192.95 181.217 192.75 191.95 Z M 120.75 175.85 C 121.583 188.683 121.167 201.166 119.5 213.299 C 119.867 213.6 120.233 213.949 120.6 214.35 C 121.333 214.383 122.067 214.416 122.8 214.45 C 123.234 214.117 123.6 213.783 123.9 213.45 C 125.667 201.25 126.117 188.7 125.25 175.8 C 124.817 175.401 124.383 175.05 123.95 174.75 C 123.25 174.75 122.5 174.75 121.7 174.75 C 121.433 175.117 121.117 175.483 120.75 175.85 Z M 111.7 166.85 C 117.133 166.916 122.583 166.916 128.05 166.85 C 136.717 166.416 142.133 170.117 144.3 177.95 C 143.967 195.65 143.1 211.066 141.7 224.2 C 134.533 224 127.367 223.8 120.2 223.6 C 119.9 223.867 119.533 224.183 119.1 224.549 C 118.867 232.35 118.583 240.199 118.25 248.1 C 118.617 248.4 118.983 248.749 119.35 249.15 C 120.117 249.15 120.833 249.15 121.5 249.15 C 121.867 248.816 122.233 248.466 122.6 248.1 C 122.9 241.333 123.15 234.549 123.35 227.749 C 129.45 227.85 135.5 227.999 141.5 228.199 C 141.267 233.765 140.983 239.383 140.65 245.049 C 140.317 252.483 136.117 256.249 128.05 256.35 C 122.683 256.35 117.334 256.35 112 256.35 C 104 256.216 100.067 252.4 100.2 244.9 C 100.633 224.867 101.283 202.7 102.15 178.4 C 101.117 170.433 104.3 166.584 111.7 166.85 Z"/>
  <path fill-rule="evenodd" clip-rule="evenodd" fill="#FFFF00" d="M 157.05 34.3 L 168.55 25.2 L 157.05 34.3 C 154.717 34.933 152.633 36.167 150.8 38 C 149.834 38.967 149.033 40 148.4 41.1 L 146.75 42.4 C 161.983 -15 196.75 -2.717 251.05 79.25 L 139.05 97.25 C 140.383 75.784 142.783 58.15 146.25 44.35 C 146.25 44.317 146.267 44.3 146.3 44.3 L 147 44.5 C 146.7 45.7 146.55 46.95 146.55 48.25 C 146.55 52.25 147.967 55.667 150.8 58.5 C 153.633 61.333 157.05 62.75 161.05 62.75 C 165.05 62.75 168.467 61.333 171.3 58.5 C 174.133 55.667 175.55 52.25 175.55 48.25 C 175.55 44.25 174.133 40.833 171.3 38 C 168.467 35.167 165.05 33.75 161.05 33.75 C 159.65 33.75 158.317 33.933 157.05 34.3 Z"/>
  <path fill-rule="evenodd" clip-rule="evenodd" fill="#FFFFFF" d="M 147 44.5 C 147.3 43.3 147.767 42.167 148.4 41.1 C 149.033 40 149.834 38.967 150.8 38 C 152.633 36.167 154.717 34.934 157.05 34.3 C 158.317 33.933 159.65 33.75 161.05 33.75 C 165.05 33.75 168.467 35.167 171.3 38 C 174.133 40.833 175.55 44.25 175.55 48.25 C 175.55 52.25 174.133 55.667 171.3 58.5 C 168.467 61.333 165.05 62.75 161.05 62.75 C 157.05 62.75 153.633 61.333 150.8 58.5 C 147.967 55.667 146.55 52.25 146.55 48.25 C 146.55 46.95 146.7 45.7 147 44.5 Z"/>
  <path fill-rule="evenodd" clip-rule="evenodd" fill="none" stroke="#000000" stroke-width="11" stroke-linecap="round" stroke-linejoin="round" stroke-miterlimit="3" d="M 157.05 34.3 C 158.317 33.933 159.65 33.75 161.05 33.75 C 165.05 33.75 168.467 35.167 171.3 38 C 174.133 40.833 175.55 44.25 175.55 48.25 C 175.55 52.25 174.133 55.667 171.3 58.5 C 168.467 61.333 165.05 62.75 161.05 62.75 C 157.05 62.75 153.633 61.333 150.8 58.5 C 147.967 55.667 146.55 52.25 146.55 48.25 C 146.55 46.95 146.7 45.7 147 44.5 C 147.3 43.3 147.767 42.167 148.4 41.1 M 146.3 44.3 C 146.267 44.3 146.25 44.317 146.25 44.35 C 142.783 58.15 140.383 75.784 139.05 97.25 L 251.05 79.25 C 196.75 -2.716 161.984 -15 146.75 42.4 L 148.4 41.1 C 149.033 40 149.834 38.967 150.8 38 C 152.633 36.167 154.717 34.934 157.05 34.3 L 168.55 25.2 M 146.75 42.4 C 146.583 43 146.433 43.633 146.3 44.3 M 7 20.2 C 31.3 24.567 53.45 30.167 73.45 37 C 96.916 45.034 117.416 54.767 134.95 66.2 C 111.717 69.167 91.217 73.967 73.45 80.6 C 44.65 91.367 23.016 106.983 8.55 127.45 C 8.017 128.183 7.5 128.933 7 129.7 L 51.8 117.25 M 7 129.7 L 12.3 86.95 M 207.8 150.75 L 198.55 103.2 M 148.95 148.75 L 161.05 111.7 M 278.05 141.75 L 233.1 97.7"/>
</svg>